<?xml version="1.0" ?><!DOCTYPE svg  PUBLIC '-//W3C//DTD SVG 1.1//EN'  'http://www.w3.org/Graphics/SVG/1.1/DTD/svg11.dtd'><svg enable-background="new 0 0 135 135" height="135px" id="Livello_1" version="1.1" viewBox="0 0 135 135" width="135px" xml:space="preserve" xmlns="http://www.w3.org/2000/svg" xmlns:xlink="http://www.w3.org/1999/xlink"><g><path d="M118.334,121.991c0,5.5-4.5,10-10,10H41.618c-5.5,0-10-4.5-10-10V11.917c0-5.5,4.5-10,10-10h66.716   c5.5,0,10,4.5,10,10V121.991z" fill="#AB4237"/></g><g><path d="M116.05,121.564c0,5.5-4.5,10-10,10H39.334c-5.5,0-10-4.5-10-10V12.489c0-5.5,4.5-10,10-10h66.716   c5.5,0,10,4.5,10,10V121.564z" fill="#C5C6C6"/></g><g><path d="M114.73,121.564c0,5.5-4.5,10-10,10H38.014c-5.5,0-10-4.5-10-10V12.489c0-5.5,4.5-10,10-10h66.716   c5.5,0,10,4.5,10,10V121.564z" fill="#EDF5F7"/></g><g><path d="M113.116,121.564c0,5.5-4.5,10-10,10H36.4c-5.5,0-10-4.5-10-10V12.489c0-5.5,4.5-10,10-10h66.716   c5.5,0,10,4.5,10,10V121.564z" fill="#C5C6C6"/></g><g><path d="M111.144,121.564c0,5.5-4.5,10-10,10H34.428c-5.5,0-10-4.5-10-10V12.489c0-5.5,4.5-10,10-10h66.716   c5.5,0,10,4.5,10,10V121.564z" fill="#EDF5F7"/></g><g><path d="M109.204,121.564c0,5.5-4.5,10-10,10H32.488c-5.5,0-10-4.5-10-10V12.489c0-5.5,4.5-10,10-10h66.716   c5.5,0,10,4.5,10,10V121.564z" fill="#C5C6C6"/></g><g><path d="M107.362,121.991c0,5.5-4.5,10-10,10H28.951c-5.5,0-10-4.5-10-10V11.917c0-5.5,4.5-10,10-10h68.412   c5.5,0,10,4.5,10,10V121.991z" fill="#E05B48"/></g><circle cx="26.4" cy="19.211" fill="#AB4237" r="4.157"/><circle cx="26.4" cy="42.927" fill="#AB4237" r="4.157"/><circle cx="26.4" cy="67.746" fill="#AB4237" r="4.157"/><circle cx="26.4" cy="93.418" fill="#AB4237" r="4.157"/><circle cx="26.4" cy="117.307" fill="#AB4237" r="4.157"/><circle cx="26.4" cy="19.211" fill="#80322E" r="3.851"/><circle cx="26.4" cy="42.927" fill="#80322E" r="3.851"/><circle cx="26.4" cy="67.746" fill="#80322E" r="3.851"/><circle cx="26.4" cy="93.418" fill="#80322E" r="3.851"/><circle cx="26.4" cy="117.344" fill="#80322E" r="3.851"/><g><path d="M16.5,43.822c0,0.55,0.45,1,1,1h9.025c0.55,0,1-0.45,1-1v-1.79c0-0.55-0.45-1-1-1H17.5c-0.55,0-1,0.45-1,1   V43.822z" fill="#888989"/></g><g><path d="M16.5,20.105c0,0.55,0.45,1,1,1h9.025c0.55,0,1-0.45,1-1v-1.79c0-0.55-0.45-1-1-1H17.5c-0.55,0-1,0.45-1,1   V20.105z" fill="#888989"/></g><g><path d="M16.989,68.641c0,0.55,0.45,1,1,1h8.536c0.55,0,1-0.45,1-1v-1.79c0-0.55-0.45-1-1-1h-8.536   c-0.55,0-1,0.45-1,1V68.641z" fill="#888989"/></g><g><path d="M16.989,94.313c0,0.55,0.45,1,1,1h8.536c0.55,0,1-0.45,1-1v-1.79c0-0.55-0.45-1-1-1h-8.536   c-0.55,0-1,0.45-1,1V94.313z" fill="#888989"/></g><g><path d="M16.5,118.239c0,0.55,0.45,1,1,1h8.536c0.55,0,1-0.45,1-1v-1.79c0-0.55-0.45-1-1-1H17.5c-0.55,0-1,0.45-1,1   V118.239z" fill="#888989"/></g><path d="M84.879,75.191c-1.583,4.593-5.864,12.725-10.747,12.813  c-3.24,0.061-4.279-1.919-7.982-1.919c-3.701,0-4.858,1.86-7.921,1.981c-5.181,0.197-12.719-11.739-12.719-22.149  c0-9.563,6.204-14.304,12.027-14.391c3.122-0.056,6.071,2.105,7.977,2.105c1.911,0,5.493-2.599,9.258-2.217  c1.575,0.065,6.001,0.635,8.841,4.789C76.074,61.121,76.789,71.409,84.879,75.191z M74.819,39.722  c-5.694,0.229-10.339,6.201-9.689,11.142C70.39,51.272,75.44,45.374,74.819,39.722z" fill="#C04F43" id="apple-os-icon_1_"/><rect fill="#405768" height="131.267" width="10.48" x="87.225" y="1.321"/><rect fill="#242E35" height="130.074" opacity="0.3" width="2.317" x="97.705" y="1.917"/></svg>